<?xml version="1.0" encoding="UTF-8"?>
<svg id="Layer_2" data-name="Layer 2" xmlns="http://www.w3.org/2000/svg" viewBox="0 0 472.9 79.32">
  <defs>
    <style>
      .cls-1 {
        letter-spacing: 0em;
      }

      .cls-1, .cls-2, .cls-3, .cls-4 {
        fill: #606161;
        font-family: Montserrat-SemiBold, Montserrat;
        font-weight: 600;
      }

      .cls-5 {
        font-family: Montserrat-Bold, Montserrat;
        font-weight: 700;
      }

      .cls-5, .cls-6 {
        fill: #124b45;
      }

      .cls-7 {
        fill: #fcb316;
      }

      .cls-8 {
        fill: #134b45;
      }

      .cls-9 {
        font-size: 54.81px;
      }

      .cls-3 {
        letter-spacing: -.01em;
      }

      .cls-4 {
        letter-spacing: 0em;
      }
    </style>
  </defs>
  <g id="Layer_1-2" data-name="Layer 1">
    <g>
      <path class="cls-8" d="m53.27,40.7c.51-2.3-1.33-3.26-2.65-4.37-12.34-10.35-8.95-28.23,4.26-34.56,10.58-5.07,25.85,1.26,28.13,14.82,1.66,9.88-2.52,16.67-10.06,22-1.33.94-.87,1.16-.23,1.88-.33,6.94-3.77,10.56-9.73,10.73-4.77.14-10.06-4.53-9.72-10.51Z"/>
      <path class="cls-6" d="m28.67.13c3.43,0,6.87-.02,10.3,0,.97,0,2.21-.3,2.16,1.36-.21,7.08.67,14.21-.45,21.25-1.09,6.85-5.3,11.5-11.35,14.57-13.08,6.63-26.73-2.32-28.78-14.71C-.93,13.56,5.36,5.23,10.92,2.07,14.89-.19,19.63-.12,24.2.1c1.48.07,2.98.01,4.46.01v.02Z"/>
      <path class="cls-7" d="m27.67,78.65c-3.32,0-6.64.1-9.95-.02C8.36,78.29.44,69.54.02,59.91c-.45-10.25,8.34-19.1,17.27-19.45,4.88-.19,9.52.14,13.86,2.79,6.1,3.73,8.89,9.36,9.39,16.12.41,5.46.01,10.98.15,16.47.06,2.35-.94,2.95-3.07,2.87-3.31-.12-6.63-.03-9.95-.03,0,0,0-.02,0-.02Z"/>
      <path class="cls-7" d="m53.27,40.7c-.34,5.98,4.95,10.64,9.72,10.51,5.95-.17,9.39-3.79,9.73-10.73,10.61,6.28,10.95,13.53,10.1,23.39-.55,6.43-8.79,13.94-16.49,15.19-13.51,2.2-25.53-9.72-23.06-24.11,1.1-6.41,4.83-10.79,10-14.25Z"/>
      <text class="cls-9" transform="translate(119.42 59.19)"><tspan class="cls-5" x="0" y="0">Hela</tspan><tspan class="cls-3" x="129.19" y="0">T</tspan><tspan class="cls-4" x="161.47" y="0">r</tspan><tspan class="cls-1" x="184.06" y="0">a</tspan><tspan class="cls-2" x="217.6" y="0">de.lk</tspan></text>
    </g>
  </g>
</svg>